<?xml version="1.0" standalone="no"?>
<!DOCTYPE svg PUBLIC "-//W3C//DTD SVG 20010904//EN"
 "http://www.w3.org/TR/2001/REC-SVG-20010904/DTD/svg10.dtd">
<svg version="1.0" xmlns="http://www.w3.org/2000/svg"
 width="400.000000pt" height="400.000000pt" viewBox="0 0 400.000000 400.000000"
 preserveAspectRatio="xMidYMid meet">
<metadata>
Created by potrace 1.11, written by Peter Selinger 2001-2013
</metadata>
<g transform="translate(0.000000,400.000000) scale(0.100000,-0.100000)"
fill="#000000" stroke="none">
<path d="M2605 3883 c-527 -76 -1033 -411 -1295 -856 -85 -145 -129 -266 -150
-414 l-12 -81 -93 5 c-83 5 -98 3 -140 -17 -78 -38 -121 -108 -160 -265 -22
-87 -28 -123 -40 -230 -3 -27 -8 -70 -11 -95 -3 -25 -8 -211 -11 -414 l-6
-370 39 31 c102 79 282 152 428 174 42 6 79 9 81 7 3 -3 -8 -37 -24 -76 l-29
-71 293 -161 c162 -89 302 -163 312 -166 13 -3 34 16 72 66 30 39 58 67 62 63
10 -10 60 -153 88 -248 21 -73 45 -188 56 -265 4 -25 8 -46 10 -48 8 -8 270
187 410 306 171 146 357 342 476 502 89 119 82 234 -20 338 -45 46 -45 50 -1
92 26 24 124 190 175 295 96 198 148 360 181 570 13 89 12 371 -2 464 -46 301
-176 600 -367 844 l-30 38 -101 -2 c-55 -2 -141 -9 -191 -16z m-9 -564 c140
-67 173 -304 76 -544 -81 -202 -267 -375 -404 -377 -74 -1 -83 1 -131 33 -35
23 -54 46 -78 96 -28 56 -33 75 -33 146 0 108 11 178 40 257 111 294 355 474
530 389z"/>
<path d="M1240 955 c0 -9 4 -14 9 -10 5 3 13 1 16 -5 8 -13 -14 -42 -26 -34
-5 3 -9 0 -9 -5 0 -6 -5 -11 -11 -11 -6 0 -4 9 5 21 17 26 11 49 -12 44 -72
-18 -94 -24 -100 -30 -4 -3 8 -4 25 0 18 3 34 1 37 -4 3 -4 -6 -7 -19 -5 -14
1 -25 -2 -25 -7 0 -6 -6 -7 -17 -1 -12 7 -22 4 -40 -14 -12 -13 -23 -29 -23
-36 0 -9 -3 -9 -10 2 -8 13 -10 13 -10 -2 0 -9 6 -19 13 -22 6 -3 2 -3 -10 0
-16 4 -23 -1 -29 -18 -4 -13 -7 -26 -6 -30 1 -5 -3 -8 -9 -8 -5 0 -8 -4 -5 -9
4 -5 0 -12 -6 -15 -7 -3 1 -4 17 -1 17 2 24 2 17 -1 -10 -5 -10 -9 -1 -20 16
-20 29 -17 23 4 -5 14 -4 14 4 2 6 -8 9 -17 6 -21 -7 -12 -43 -6 -41 6 1 5 -5
10 -13 10 -10 0 -15 -11 -16 -32 -1 -18 3 -33 9 -33 5 0 5 -6 -2 -13 -11 -14
-5 -27 11 -27 5 0 6 5 2 12 -4 6 -3 8 3 5 5 -4 20 3 31 14 12 11 22 16 22 11
0 -5 -17 -21 -37 -35 -21 -15 -32 -27 -25 -27 7 0 10 -4 7 -10 -3 -5 -1 -10 5
-10 7 0 10 -6 7 -14 -3 -8 1 -22 9 -33 15 -20 15 -20 52 34 7 10 5 2 -5 -17
-9 -19 -16 -39 -15 -43 1 -5 -2 -6 -8 -2 -6 3 -7 0 -4 -9 3 -9 11 -13 18 -9 6
4 20 9 31 10 16 2 17 1 5 -6 -8 -5 -18 -7 -22 -5 -14 9 -9 -31 6 -51 13 -18
16 -18 33 -5 10 8 8 5 -5 -7 -13 -13 -18 -23 -12 -23 6 0 8 -4 5 -10 -3 -5 -1
-10 4 -10 6 0 11 -5 11 -11 0 -5 -4 -8 -8 -5 -12 7 -10 -38 2 -47 8 -6 7 -10
-1 -14 -7 -2 -13 -12 -13 -20 0 -9 -11 -31 -25 -48 -13 -18 -21 -35 -18 -39 4
-3 0 -6 -8 -6 -19 0 -40 -35 -33 -57 5 -16 4 -16 -7 1 -11 18 -12 18 -31 -5
-11 -13 -17 -18 -13 -11 6 12 3 12 -16 1 l-24 -13 30 -6 c44 -9 227 -2 238 9
5 5 16 7 23 4 10 -4 12 0 7 13 -6 17 -5 17 9 6 14 -11 21 -11 40 -1 13 7 29
14 37 15 29 5 37 25 17 40 -11 8 -14 14 -7 14 7 0 9 4 6 10 -3 6 1 7 10 3 11
-4 13 -8 5 -13 -8 -5 -6 -11 5 -20 14 -11 19 -7 16 13 -1 5 3 6 8 3 12 -8 41
4 41 16 0 6 -8 4 -17 -3 -16 -13 -17 -12 -5 3 8 10 20 14 29 11 10 -4 14 -2
10 4 -4 6 2 13 13 16 25 6 26 27 3 28 -12 0 -13 2 -5 6 10 4 10 9 -3 23 -17
19 -12 46 6 35 5 -4 9 -2 9 3 0 17 -13 22 -27 10 -10 -8 -17 -8 -26 1 -9 10
-8 11 4 6 10 -4 19 -2 22 2 3 5 -8 14 -24 20 -28 11 -30 10 -24 -10 5 -19 5
-20 -5 -4 -14 22 -5 38 18 30 15 -6 15 -5 3 10 -9 11 -10 17 -2 17 10 0 15
-13 12 -32 0 -5 5 -8 12 -8 19 0 50 -36 43 -49 -4 -5 2 -14 11 -20 10 -6 14
-11 9 -11 -5 0 -18 7 -28 17 -24 21 -23 4 2 -25 l20 -24 24 29 c14 15 26 31
26 35 0 4 7 16 15 25 8 10 15 22 14 27 0 5 5 12 13 17 10 6 9 11 -7 23 -15 11
-17 18 -9 26 9 9 14 9 19 -1 5 -8 4 -10 -3 -5 -7 4 -12 2 -12 -3 0 -32 47 18
53 56 1 10 7 24 11 32 6 10 5 12 -2 7 -7 -4 -12 -2 -12 3 0 6 5 11 11 11 6 0
9 7 5 15 -3 8 -2 15 2 15 4 0 8 16 9 35 1 33 -1 35 -16 20 -10 -8 -21 -15 -26
-15 -4 0 4 9 19 21 26 21 34 53 16 64 -6 4 -8 11 -4 16 3 5 0 16 -6 24 -7 8
-9 15 -4 15 5 0 1 7 -9 15 -11 7 -25 11 -32 9 -18 -7 -30 15 -15 29 10 9 12 8
7 -5 -4 -12 -1 -16 13 -15 14 1 16 5 10 17 -16 30 -92 92 -106 86 -7 -3 -13 0
-11 6 3 17 -119 58 -133 44 -8 -8 -13 -7 -19 3 -14 23 -19 -2 -6 -33 7 -18 15
-24 19 -17 4 6 4 17 0 24 -5 9 -4 9 6 0 10 -10 11 -15 1 -27 -8 -10 -9 -16 -1
-21 5 -3 10 -11 10 -17 0 -15 -36 33 -44 60 -9 28 -46 50 -46 27z m110 -16 c0
-5 5 -7 12 -3 7 4 8 3 4 -5 -6 -9 -11 -9 -22 0 -17 14 -18 19 -4 19 6 0 10 -5
10 -11z m44 -30 c-11 -12 -25 -17 -36 -13 -13 4 -16 1 -12 -11 4 -9 13 -14 20
-11 8 3 21 9 29 12 9 4 15 1 15 -7 0 -7 -3 -9 -6 -6 -4 3 -16 1 -27 -5 -16 -8
-23 -7 -33 7 -17 23 -8 38 19 29 12 -3 19 -3 15 1 -10 11 12 36 24 29 5 -3 2
-14 -8 -25z m-184 7 c0 -3 -4 -8 -10 -11 -5 -3 -10 -1 -10 4 0 6 5 11 10 11 6
0 10 -2 10 -4z m215 -5 c-3 -5 4 -12 14 -16 20 -6 20 -6 0 -26 -24 -24 -38
-25 -15 0 15 17 15 19 1 25 -14 5 -13 26 1 26 3 0 3 -4 -1 -9z m-123 -41 c4 0
8 -6 8 -12 -1 -7 -10 -2 -20 11 -11 13 -20 28 -19 35 0 6 5 1 11 -11 6 -13 15
-23 20 -23z m-204 10 c-7 -11 -16 -20 -20 -20 -5 0 -3 9 4 20 7 11 16 20 20
20 5 0 3 -9 -4 -20z m67 13 c-11 -3 -28 -12 -37 -21 -10 -8 -18 -12 -18 -7 0
14 34 34 55 34 l20 -1 -20 -5z m325 -8 c7 -9 8 -15 2 -15 -5 0 -12 7 -16 15
-3 8 -4 15 -2 15 2 0 9 -7 16 -15z m-289 -32 c-11 -16 -11 -16 -6 4 6 20 4 21
-24 10 -16 -6 -27 -15 -24 -20 3 -4 12 -6 22 -2 12 5 13 4 4 -6 -9 -9 -16 -9
-26 -1 -8 7 -18 8 -22 4 -5 -4 -5 -1 -1 6 10 18 69 41 80 32 4 -5 3 -16 -3
-27z m64 27 c8 -13 -14 -42 -25 -35 -5 3 -10 -1 -13 -7 -2 -7 -8 -10 -12 -5
-10 8 26 38 37 31 5 -3 8 -1 8 5 0 5 -6 12 -12 14 -10 4 -10 6 -1 6 6 1 15 -4
18 -9z m191 -29 c-14 -15 -14 -20 -3 -24 17 -6 15 -49 -2 -55 -9 -3 -7 -9 5
-23 23 -25 9 -24 -16 1 -11 11 -15 20 -9 20 8 0 8 5 -1 15 -10 12 -10 18 0 30
9 10 9 15 1 15 -13 0 19 38 33 39 5 1 1 -7 -8 -18z m70 -18 c-3 -4 -6 0 -6 8
0 8 -7 2 -14 -13 -13 -24 -12 -32 4 -65 20 -41 13 -62 -17 -44 -16 11 -16 11
4 6 20 -6 21 -4 10 24 -6 16 -15 27 -20 24 -4 -3 -6 -12 -2 -22 5 -12 4 -13
-6 -4 -8 8 -9 17 -3 25 11 16 11 38 0 56 -5 8 -3 19 3 25 9 9 11 8 6 -4 -4
-10 -2 -20 3 -23 6 -3 13 6 17 21 6 25 8 26 17 10 5 -10 7 -21 4 -24z m-136
-2 c-10 -21 -12 -21 -34 -4 -13 10 -22 20 -20 22 2 2 14 -4 26 -15 20 -18 21
-18 15 -1 -4 11 -3 16 3 12 6 -3 10 -1 10 6 0 7 3 10 6 7 3 -4 1 -16 -6 -27z
m-280 9 c0 -5 -4 -10 -10 -10 -5 0 -10 5 -10 10 0 6 5 10 10 10 6 0 10 -4 10
-10z m176 1 c-6 -9 30 -61 43 -61 4 0 7 9 7 20 0 13 -5 19 -14 15 -7 -2 -11
-1 -7 4 3 5 -1 12 -7 14 -10 4 -10 6 1 6 17 1 91 -73 90 -90 0 -11 -2 -11 -6
-1 -2 6 -9 10 -14 7 -5 -4 -6 2 -2 12 6 16 5 17 -11 3 -17 -13 -17 -15 4 -32
12 -10 26 -15 31 -12 5 3 9 0 9 -5 0 -16 -10 -14 -46 11 -31 21 -31 22 -12 38
19 15 19 16 2 30 -16 13 -17 13 -11 -2 4 -12 0 -21 -14 -29 -11 -6 -23 -8 -27
-5 -3 3 0 6 7 6 7 0 2 13 -13 31 -28 32 -33 49 -15 49 5 0 8 -4 5 -9z m-226
-31 c-8 -5 -15 -15 -15 -22 0 -7 -3 -14 -7 -15 -17 -6 -28 -2 -28 8 0 8 5 8
15 -1 20 -17 19 -1 -2 22 -9 11 -11 18 -5 18 7 0 12 -5 12 -12 0 -8 6 -6 17 5
9 9 19 14 22 11 3 -3 -1 -9 -9 -14z m86 -9 c-4 -6 -13 -11 -19 -10 -9 0 -9 2
1 6 6 2 12 9 12 14 0 6 -9 5 -22 -1 -22 -11 -22 -11 -4 4 21 17 44 7 32 -13z
m44 20 c0 -5 -7 -12 -16 -15 -14 -5 -15 -4 -4 9 14 17 20 19 20 6z m76 -20
c-4 -6 -13 -11 -19 -10 -9 0 -9 2 1 6 6 2 12 9 12 14 0 6 -9 5 -22 -1 -22 -11
-22 -11 -4 4 21 17 44 7 32 -13z m141 -2 c0 -21 -3 -26 -9 -16 -4 9 -5 22 -2
31 9 23 11 20 11 -15z m-322 2 c-3 -6 -11 -11 -16 -11 -5 0 -4 6 3 14 14 16
24 13 13 -3z m120 0 c-3 -6 -11 -11 -16 -11 -5 0 -4 6 3 14 14 16 24 13 13 -3z
m325 -26 c0 -5 -5 -3 -10 5 -5 8 -10 20 -10 25 0 6 5 3 10 -5 5 -8 10 -19 10
-25z m-441 -16 c-15 -21 -25 -27 -32 -20 -12 12 10 44 24 35 5 -3 9 0 9 5 0 6
5 11 11 11 6 0 1 -14 -12 -31z m81 21 c0 -5 -5 -10 -11 -10 -5 0 -8 -4 -5 -9
9 -14 -20 -32 -39 -24 -11 4 -16 3 -12 -4 4 -5 0 -19 -8 -29 -15 -19 -15 -19
-8 0 5 15 3 17 -8 11 -8 -5 -5 1 5 13 13 14 26 20 38 16 10 -3 18 -2 17 3 -3
13 12 43 22 43 5 0 9 -4 9 -10z m50 -5 c-7 -8 -16 -13 -20 -10 -4 3 -11 -2
-14 -11 -4 -12 -1 -14 13 -9 25 8 34 -7 17 -30 -10 -14 -17 -15 -33 -7 -11 6
-23 8 -27 5 -3 -3 -6 -1 -6 6 0 7 6 11 13 8 6 -3 19 -8 28 -12 10 -4 19 0 23
11 5 12 2 15 -10 10 -24 -9 -35 3 -24 25 6 11 15 17 21 14 5 -4 9 -1 9 4 0 6
5 11 11 11 8 0 8 -5 -1 -15z m70 5 c0 -5 -4 -10 -10 -10 -5 0 -10 -5 -10 -11
0 -6 -9 -22 -20 -36 -11 -14 -20 -21 -20 -15 0 6 5 14 10 17 8 5 7 11 -1 21
-10 12 -9 17 0 27 10 9 11 8 6 -4 -4 -10 -2 -20 3 -23 6 -3 13 5 16 19 6 24
26 36 26 15z m274 -13 c-12 -7 -19 -19 -16 -27 4 -12 2 -13 -9 -2 -12 11 -11
16 5 28 11 8 25 14 30 14 6 -1 2 -6 -10 -13z m-254 -29 c0 -6 -6 -5 -15 2 -8
7 -15 14 -15 16 0 2 7 1 15 -2 8 -4 15 -11 15 -16z m285 4 c-3 -3 -11 0 -18 7
-9 10 -8 11 6 5 10 -3 15 -9 12 -12z m-155 -12 c11 -11 15 -20 10 -20 -6 0 -3
-11 5 -24 15 -23 15 -25 -5 -36 -12 -6 -24 -9 -28 -6 -3 3 0 6 7 6 7 0 9 4 6
10 -4 6 1 7 11 3 14 -5 15 -3 5 15 -7 12 -16 22 -22 22 -6 0 -8 -3 -5 -8 7
-11 -23 -47 -31 -37 -5 4 -2 10 5 12 6 3 10 9 7 14 -3 4 3 14 14 21 19 11 19
14 4 30 -22 25 -8 23 17 -2z m-98 -9 c8 11 8 10 4 -5 -5 -14 -2 -17 10 -12 24
9 35 -3 24 -25 -6 -11 -15 -17 -21 -14 -5 4 -9 1 -9 -4 0 -6 -5 -11 -11 -11
-8 0 -8 5 1 15 7 8 16 13 20 10 4 -3 11 2 14 11 5 12 2 15 -10 10 -20 -8 -44
11 -43 33 1 12 2 11 6 -3 4 -15 7 -16 15 -5z m239 4 c5 4 6 -2 2 -11 -4 -11
-8 -13 -11 -6 -2 7 -8 10 -13 7 -5 -4 -6 2 -2 11 4 11 8 13 11 6 2 -7 8 -10
13 -7z m-588 -15 c3 -11 1 -18 -4 -14 -5 3 -9 12 -9 20 0 20 7 17 13 -6z m297
12 c0 -4 -9 -13 -20 -20 -23 -14 -26 -8 -7 13 13 16 27 19 27 7z m-146 -31
c-4 -3 -9 0 -11 7 -3 6 -10 9 -15 6 -7 -4 -8 -2 -4 5 6 9 11 9 22 0 8 -6 12
-15 8 -18z m-64 -23 c0 -4 7 -4 17 -1 11 4 14 3 9 -5 -11 -19 -25 -14 -37 12
-8 16 -17 23 -28 19 -14 -4 -14 -3 -1 6 11 8 18 7 28 -6 6 -9 12 -20 12 -25z
m241 0 c-10 -11 -11 -10 -6 3 4 10 2 20 -4 24 -6 3 -11 -1 -11 -9 0 -8 -6 -21
-13 -28 -7 -7 -16 -21 -20 -31 -5 -14 -11 -16 -26 -8 -29 16 -33 39 -10 52 11
6 23 8 27 5 3 -3 0 -6 -7 -6 -7 0 -9 -4 -6 -10 3 -6 -1 -7 -10 -4 -11 4 -14 2
-9 -9 8 -21 34 -30 34 -12 0 7 6 20 13 27 7 7 16 22 20 32 7 18 9 18 24 3 14
-14 15 -19 4 -29z m180 21 c6 -13 7 -19 1 -15 -6 3 -13 0 -16 -6 -3 -7 -3 -2
0 11 4 16 3 21 -5 17 -6 -4 -11 -2 -11 3 0 19 19 12 31 -10z m67 -3 c6 1 17 2
23 3 5 0 7 6 3 13 -4 7 -3 8 4 4 17 -10 15 -26 -4 -26 -8 0 -13 -4 -9 -9 13
-22 -19 -22 -36 0 -20 26 -26 54 -6 29 7 -9 18 -15 25 -14z m-544 -2 c3 -8 2
-12 -4 -9 -6 3 -10 1 -10 -6 0 -7 -2 -10 -5 -7 -5 5 4 38 10 38 2 0 6 -7 9
-16z m157 1 c5 4 6 -2 2 -12 -6 -17 -5 -17 14 0 11 9 24 17 29 17 4 0 -2 -7
-15 -16 -16 -12 -20 -19 -12 -27 6 -6 11 -15 11 -21 0 -5 -11 5 -25 24 -14 19
-25 39 -24 44 0 6 3 5 6 -2 2 -6 9 -10 14 -7z m-51 -5 c8 -5 11 -10 5 -10 -5
0 -17 5 -25 10 -8 5 -10 10 -5 10 6 0 17 -5 25 -10z m395 -19 c-3 -6 -11 -11
-16 -11 -5 0 -4 6 3 14 14 16 24 13 13 -3z m-343 -31 c4 0 8 -6 8 -12 -1 -7
-10 -2 -20 11 -11 13 -20 28 -19 35 0 6 5 1 11 -11 6 -13 15 -23 20 -23z m-37
-9 c-3 -6 -11 -9 -16 -6 -5 4 -9 2 -9 -3 0 -17 13 -22 27 -10 10 8 17 8 26 -1
9 -10 8 -11 -4 -6 -10 4 -19 2 -22 -2 -3 -5 8 -14 24 -20 28 -11 30 -10 24 10
-5 20 -5 20 6 4 18 -29 -2 -37 -43 -17 -25 12 -40 14 -47 7 -7 -7 -14 -2 -22
16 -8 17 -17 23 -27 20 -10 -4 -13 -2 -8 5 12 19 24 14 40 -15 15 -27 17 -26
20 7 0 8 7 14 14 13 14 -3 16 13 3 22 -5 3 -12 1 -16 -5 -3 -5 -11 -10 -18
-10 -6 0 -2 6 9 14 16 12 21 13 33 1 7 -7 10 -18 6 -24z m-98 9 c-14 -11 -29
-20 -34 -20 -10 1 39 39 51 40 5 0 -3 -9 -17 -20z m278 9 c11 -16 1 -19 -13
-3 -7 8 -8 14 -3 14 5 0 13 -5 16 -11z m60 0 c10 -15 -24 -49 -41 -42 -12 4
-11 8 3 18 10 7 21 11 25 9 5 -3 8 -1 8 5 0 5 -6 12 -12 14 -10 4 -10 6 -1 6
6 1 15 -4 18 -10z m95 1 c-8 -5 -19 -10 -25 -10 -5 0 -3 5 5 10 8 5 20 10 25
10 6 0 3 -5 -5 -10z m60 0 c-8 -5 -19 -10 -25 -10 -5 0 -3 5 5 10 8 5 20 10
25 10 6 0 3 -5 -5 -10z m-242 -31 c-10 -6 -15 -17 -12 -27 5 -15 4 -14 -6 1
-10 15 -8 21 7 32 10 7 20 11 23 8 3 -2 -3 -9 -12 -14z m124 4 c-6 -3 -10 -8
-7 -13 8 -12 -23 -33 -36 -24 -9 5 -4 14 16 30 16 13 32 20 35 17 3 -3 -1 -8
-8 -10z m81 -2 c-2 -6 6 -11 18 -11 11 0 18 4 14 9 -13 22 19 22 36 0 20 -26
26 -53 6 -29 -7 9 -29 15 -57 15 -28 0 -50 -6 -57 -15 -18 -22 -16 -3 3 26 16
24 42 28 37 5z m-62 -18 c-12 -20 -14 -14 -5 12 4 9 9 14 11 11 3 -2 0 -13 -6
-23z m169 23 c0 -3 -4 -8 -10 -11 -5 -3 -10 -1 -10 4 0 6 5 11 10 11 6 0 10
-2 10 -4z m-380 -17 c0 -5 4 -8 9 -5 12 8 34 -21 26 -34 -3 -5 -12 -10 -18 -9
-9 0 -9 2 1 6 13 5 17 24 5 21 -5 0 -16 2 -25 6 -19 9 -24 26 -8 26 6 0 10 -5
10 -11z m-177 -6 c-7 -2 -19 -2 -25 0 -7 3 -2 5 12 5 14 0 19 -2 13 -5z m277
-3 c13 -7 17 -16 13 -28 -6 -15 -5 -15 10 -3 9 7 17 9 17 4 0 -12 -60 -47 -67
-39 -4 3 -1 6 6 6 7 0 9 4 6 10 -3 5 0 7 7 5 9 -4 14 2 14 15 0 27 -12 25 -32
-5 -17 -26 -34 -33 -34 -13 0 6 3 9 6 5 4 -3 15 4 24 16 13 16 15 24 7 29 -18
11 2 9 23 -2z m180 -45 c0 -5 -5 -3 -10 5 -5 8 -10 20 -10 25 0 6 5 3 10 -5 5
-8 10 -19 10 -25z m29 3 c-7 -12 -12 -26 -11 -30 1 -5 -3 -8 -9 -8 -6 0 -9 3
-7 8 23 47 32 61 35 58 3 -2 -1 -15 -8 -28z m-511 -3 c-3 -3 -9 2 -12 12 -6
14 -5 15 5 6 7 -7 10 -15 7 -18z m122 8 c0 -3 -6 -3 -14 0 -13 5 -15 -13 -6
-53 0 -3 8 7 16 23 16 29 28 34 40 15 5 -7 2 -9 -8 -5 -10 3 -19 -3 -27 -19
-6 -14 -16 -22 -21 -19 -6 3 -10 2 -10 -4 0 -5 5 -12 10 -14 6 -3 5 -4 -2 -3
-12 2 -21 71 -11 88 4 7 33 -1 33 -9z m278 5 c-3 -7 -14 -14 -26 -14 -20 -2
-20 -1 -2 3 11 2 18 9 15 14 -4 5 -1 9 5 9 7 0 10 -6 8 -12z m13 -25 c-12 -20
-14 -14 -5 12 4 9 9 14 11 11 3 -2 0 -13 -6 -23z m-356 -5 c-9 -6 -19 -7 -22
-4 -4 3 -1 6 6 6 7 0 9 4 6 10 -4 6 1 7 11 3 15 -6 15 -7 -1 -15z m145 11 c0
-5 4 -8 9 -5 12 8 34 -21 26 -34 -3 -6 -11 -8 -16 -5 -5 4 -9 2 -9 -4 0 -5 5
-12 10 -14 6 -3 5 -4 -2 -3 -7 1 -14 12 -14 24 -1 12 -7 28 -14 37 -8 10 -9
15 -1 15 6 0 11 -5 11 -11z m256 2 c-4 -5 0 -12 6 -15 7 -3 2 -3 -11 0 -16 4
-21 3 -17 -5 4 -6 2 -11 -3 -11 -17 0 -13 18 7 29 21 13 25 13 18 2z m79 -13
c-9 -6 -19 -7 -22 -4 -4 3 -1 6 6 6 7 0 9 4 6 10 -4 6 1 7 11 3 15 -6 15 -7
-1 -15z m-205 -8 c-24 -15 -36 -11 -14 4 10 8 21 12 24 10 2 -3 -2 -9 -10 -14z
m-154 1 c-4 -5 -1 -11 6 -13 7 -3 5 -7 -6 -11 -10 -4 -15 -3 -11 3 3 6 0 10
-7 10 -9 0 -9 3 2 10 19 12 23 12 16 1z m204 -5 c-7 -7 -13 -7 -20 0 -6 6 -3
10 10 10 13 0 16 -4 10 -10z m-227 -26 c9 -11 13 -20 7 -20 -5 0 -14 9 -20 20
-6 11 -9 20 -8 20 2 0 11 -9 21 -20z m108 -16 c-11 -15 -21 -31 -21 -36 0 -6
-9 -21 -20 -35 -11 -14 -20 -21 -20 -15 0 6 5 14 10 17 8 5 7 11 -1 21 -10 12
-9 17 0 27 10 9 11 8 6 -4 -4 -10 -2 -20 3 -23 9 -6 27 39 23 57 -1 5 3 6 8 3
5 -3 12 1 15 10 4 9 9 14 12 11 4 -3 -3 -18 -15 -33z m99 8 c0 -13 5 -12 20 8
11 14 20 21 20 17 0 -5 -9 -20 -19 -33 l-19 -24 -9 26 -9 26 -19 -23 c-18 -20
-18 -22 -2 -16 10 4 16 3 12 -2 -3 -5 0 -11 7 -13 7 -3 4 -7 -7 -12 -11 -4
-16 -4 -12 0 4 4 -2 13 -13 21 -11 8 -20 22 -19 31 0 15 1 15 7 -1 7 -16 9
-16 25 3 19 23 37 19 37 -8z m122 -7 c3 -13 1 -22 -3 -19 -5 3 -9 15 -9 26 0
20 -1 21 -20 3 -24 -21 -27 -14 -4 9 19 20 30 14 36 -19z m24 7 c-18 -16 -18
-16 -6 6 6 13 14 21 18 18 3 -4 -2 -14 -12 -24z m-88 -7 c-4 -17 0 -29 11 -36
14 -10 14 -10 -1 -5 -15 4 -18 -10 -8 -54 0 -3 7 6 15 20 8 14 14 20 15 14 0
-5 -6 -18 -12 -27 -12 -15 -15 -14 -38 5 -14 12 -18 19 -8 15 15 -5 18 8 8 53
0 3 -7 -6 -15 -20 -16 -29 -20 -19 -4 11 5 11 14 17 20 14 5 -4 9 3 9 14 0 12
3 21 6 21 4 0 4 -11 2 -25z m119 3 c-3 -8 -6 -5 -6 6 -1 11 2 17 5 13 3 -3 4
-12 1 -19z m-462 -18 c-3 -5 -11 -10 -16 -10 -6 0 -7 5 -4 10 3 6 11 10 16 10
6 0 7 -4 4 -10z m65 0 c0 -5 -5 -10 -11 -10 -5 0 -8 -4 -4 -9 3 -5 -4 -16 -15
-24 -11 -7 -17 -17 -12 -22 4 -5 1 -5 -5 -1 -18 10 -16 26 2 26 8 0 14 3 13 8
0 4 2 15 6 25 9 18 26 23 26 7z m50 -5 c-7 -8 -16 -13 -20 -10 -4 3 -11 -2
-14 -11 -4 -12 -1 -14 13 -9 31 9 33 -11 6 -43 -30 -36 -33 -52 -5 -27 11 10
22 16 24 14 2 -2 -7 -12 -20 -22 -22 -17 -24 -17 -34 4 -7 11 -9 23 -6 27 3 3
6 0 6 -8 0 -16 26 4 42 33 9 17 8 19 -7 13 -25 -9 -37 2 -25 25 6 11 15 17 21
14 5 -4 9 -1 9 4 0 6 5 11 11 11 8 0 8 -5 -1 -15z m123 -45 c-3 -3 -8 1 -10 8
-3 6 -8 10 -13 7 -12 -8 -33 23 -24 36 5 9 14 4 30 -16 13 -16 20 -32 17 -35z
m142 50 c-3 -5 -1 -10 6 -10 7 0 10 -2 7 -5 -3 -3 -13 -2 -22 1 -14 5 -15 9
-4 15 17 11 20 11 13 -1z m43 -45 c-3 -3 -9 2 -12 12 -6 14 -5 15 5 6 7 -7 10
-15 7 -18z m-252 -21 c-10 -14 -20 -23 -23 -20 -3 3 2 12 11 21 9 9 16 21 16
27 0 6 3 8 6 5 4 -4 -1 -18 -10 -33z m228 3 c-5 -18 -4 -20 7 -9 7 6 18 12 24
12 5 0 2 -5 -7 -11 -29 -16 -32 -15 -35 14 -1 16 2 25 8 21 5 -3 7 -15 3 -27z
m-324 2 c13 -9 12 -10 -3 -5 -11 3 -20 0 -23 -9 -4 -8 -10 -15 -15 -15 -5 0
-4 9 3 20 15 23 18 24 38 9z m133 4 c-7 -2 -13 -9 -13 -14 0 -6 3 -8 8 -5 11
7 47 -23 37 -31 -4 -5 -10 -2 -12 5 -3 6 -8 10 -13 7 -11 -7 -33 22 -25 35 3
5 12 10 18 9 9 0 9 -2 0 -6z m-23 -37 c0 -2 -7 -20 -15 -40 -14 -32 -18 -35
-35 -26 -11 6 -20 16 -21 23 0 7 -4 3 -9 -8 -7 -17 -9 -17 -9 -3 -1 19 45 55
56 44 3 -3 1 -6 -6 -6 -7 0 -9 -4 -6 -10 3 -6 -1 -7 -10 -4 -11 4 -14 2 -9 -9
10 -28 32 -27 40 1 4 15 7 30 6 35 -1 4 3 7 8 7 6 0 10 -2 10 -4z m204 -4 c2
-4 -4 -8 -14 -8 -10 0 -16 4 -14 8 3 4 9 8 14 8 5 0 11 -4 14 -8z m-362 -9
c-10 -4 -10 -9 3 -23 17 -19 12 -46 -6 -35 -5 4 -9 2 -9 -3 0 -17 13 -22 27
-10 10 8 17 8 26 -1 9 -10 8 -11 -4 -6 -10 4 -19 2 -22 -2 -3 -5 8 -14 24 -20
28 -11 30 -10 24 10 -5 19 -5 20 5 4 14 -22 5 -38 -18 -30 -15 6 -15 5 -3 -10
9 -11 10 -17 2 -17 -10 0 -15 13 -12 33 0 4 -5 7 -12 7 -19 0 -50 37 -42 50 3
5 11 8 16 5 15 -10 10 12 -6 25 -20 17 -19 30 3 29 11 0 12 -2 4 -6z m50 -43
c4 0 8 -6 8 -12 -1 -7 -10 -2 -20 11 -11 13 -20 28 -19 35 0 6 5 1 11 -11 6
-13 15 -23 20 -23z m172 21 c2 5 4 5 2 -2 -1 -6 -5 -10 -10 -9 -5 1 -13 -4
-18 -12 -8 -10 -9 -9 -5 4 8 22 -15 29 -31 9 -11 -14 -11 -12 -2 7 11 22 13
22 35 8 14 -9 25 -12 29 -5z m39 -17 c-3 -8 -7 -14 -10 -14 -3 0 -3 7 1 15 3
8 1 15 -4 15 -6 0 -10 5 -10 11 0 8 4 8 14 -1 8 -6 12 -18 9 -26z m100 19 c-7
-2 -19 -2 -25 0 -7 3 -2 5 12 5 14 0 19 -2 13 -5z m-186 -37 c-3 -8 4 -18 19
-24 15 -8 22 -17 18 -27 -3 -8 -8 -15 -11 -15 -3 0 -3 6 0 14 3 8 -5 18 -19
25 -24 11 -30 22 -17 34 11 11 15 8 10 -7z m59 5 c-3 -5 1 -11 9 -15 8 -3 19
3 24 12 8 14 9 11 8 -13 -2 -19 -8 -30 -17 -30 -8 0 -14 6 -12 14 2 9 -3 11
-13 7 -11 -4 -14 -2 -9 6 5 8 1 9 -12 5 -18 -7 -18 -7 0 8 22 17 30 19 22 6z
m-136 -22 c0 -5 4 -8 9 -5 12 8 34 -21 26 -34 -3 -5 -12 -10 -18 -9 -9 0 -9 2
1 6 13 5 17 24 5 21 -5 0 -16 2 -25 6 -19 9 -24 26 -8 26 6 0 10 -5 10 -11z
m60 -24 c0 -5 -5 -3 -10 5 -5 8 -10 20 -10 25 0 6 5 3 10 -5 5 -8 10 -19 10
-25z m-190 -5 c-8 -6 -10 -10 -5 -10 6 0 1 -7 -9 -15 -11 -8 -25 -15 -30 -15
-6 1 0 7 14 15 14 8 21 14 16 15 -5 0 -3 7 4 15 7 9 15 13 19 10 3 -3 -1 -10
-9 -15z m50 -17 c0 -3 -6 -3 -14 0 -13 5 -15 -11 -6 -53 0 -3 7 6 15 20 16 29
20 19 4 -11 -5 -11 -14 -17 -20 -14 -5 4 -9 -1 -9 -10 0 -9 4 -13 10 -10 6 4
7 -1 3 -11 -6 -15 -7 -15 -15 1 -5 9 -7 23 -4 30 3 8 -3 19 -12 25 -15 11 -15
11 2 6 14 -5 17 -2 12 10 -8 21 1 34 19 27 8 -3 15 -7 15 -10z m153 -3 c-19
-22 -33 -26 -33 -9 0 5 4 8 9 5 5 -3 11 1 15 9 3 8 10 15 16 15 5 0 2 -9 -7
-20z m59 -2 c-7 -7 -12 -8 -12 -2 0 14 12 26 19 19 2 -3 -1 -11 -7 -17z m-132
-9 c0 -5 4 -8 9 -5 14 9 36 -23 24 -35 -7 -7 -17 -1 -32 20 -13 17 -18 31 -12
31 6 0 11 -5 11 -11z m-24 -18 c-3 -5 1 -11 8 -14 8 -3 20 -16 26 -29 10 -21
10 -21 -3 -6 -8 10 -18 14 -22 10 -5 -4 -4 -1 0 7 6 11 4 13 -9 8 -10 -4 -15
-3 -11 3 3 6 0 10 -7 10 -9 0 -9 3 2 10 19 12 23 12 16 1z m-118 -10 c11 -7
10 -9 -3 -14 -9 -4 -14 -3 -10 2 3 5 -1 12 -7 14 -7 3 -8 6 -3 6 6 0 16 -3 23
-8z m-29 -23 c9 -23 -9 -49 -33 -47 -6 0 -5 3 2 6 10 4 9 10 -5 27 -18 21 -18
21 3 4 27 -23 33 -23 27 2 -3 11 -9 17 -14 14 -5 -3 -9 0 -9 5 0 20 20 11 29
-11z m132 -16 c3 2 -4 -5 -14 -14 -11 -10 -24 -18 -31 -17 -7 0 -6 2 2 6 6 2
10 9 7 14 -4 5 1 6 10 3 11 -5 14 -2 9 10 -3 9 -10 13 -15 10 -5 -3 -6 2 -2
12 5 14 7 14 18 -5 6 -12 13 -20 16 -19z m111 16 c-7 -7 -12 -8 -12 -2 0 14
12 26 19 19 2 -3 -1 -11 -7 -17z m-205 -5 c-4 -3 -2 -12 5 -20 8 -10 8 -17 -1
-26 -10 -9 -11 -8 -5 8 7 19 7 19 -13 3 -11 -10 -23 -18 -28 -18 -5 0 0 6 11
14 10 8 20 19 20 25 2 18 4 21 11 21 3 0 3 -3 0 -7z m-116 -46 c-10 -9 -11 -8
-5 6 3 10 9 15 12 12 3 -3 0 -11 -7 -18z"/>
<path d="M1435 810 c-7 -11 2 -30 13 -30 4 0 8 9 8 20 0 21 -11 26 -21 10z"/>
<path d="M1067 763 c-4 -3 -7 -11 -7 -17 0 -6 5 -5 12 2 6 6 9 14 7 17 -3 3
-9 2 -12 -2z"/>
<path d="M1560 670 c0 -5 5 -10 11 -10 5 0 7 5 4 10 -3 6 -8 10 -11 10 -2 0
-4 -4 -4 -10z"/>
<path d="M1385 590 c-3 -5 -2 -10 4 -10 5 0 13 5 16 10 3 6 2 10 -4 10 -5 0
-13 -4 -16 -10z"/>
<path d="M1480 609 c0 -5 5 -7 10 -4 6 3 10 8 10 11 0 2 -4 4 -10 4 -5 0 -10
-5 -10 -11z"/>
<path d="M1545 610 c3 -5 8 -10 11 -10 2 0 4 5 4 10 0 6 -5 10 -11 10 -5 0 -7
-4 -4 -10z"/>
<path d="M1240 521 c0 -5 5 -13 10 -16 6 -3 10 -2 10 4 0 5 -4 13 -10 16 -5 3
-10 2 -10 -4z"/>
<path d="M1300 451 c0 -5 5 -13 10 -16 6 -3 10 -2 10 4 0 5 -4 13 -10 16 -5 3
-10 2 -10 -4z"/>
<path d="M1385 270 c-3 -5 -1 -10 4 -10 6 0 11 5 11 10 0 6 -2 10 -4 10 -3 0
-8 -4 -11 -10z"/>
<path d="M1240 201 c0 -5 5 -13 10 -16 6 -3 10 -2 10 4 0 5 -4 13 -10 16 -5 3
-10 2 -10 -4z"/>
<path d="M1247 933 c-4 -3 -7 -11 -7 -17 0 -6 5 -5 12 2 6 6 9 14 7 17 -3 3
-9 2 -12 -2z"/>
</g>
</svg>
